<?xml version="1.0" encoding="UTF-8" standalone="no"?>
<svg
   xmlns:dc="http://purl.org/dc/elements/1.1/"
   xmlns:cc="http://creativecommons.org/ns#"
   xmlns:rdf="http://www.w3.org/1999/02/22-rdf-syntax-ns#"
   xmlns:svg="http://www.w3.org/2000/svg"
   xmlns="http://www.w3.org/2000/svg"
   xmlns:sodipodi="http://sodipodi.sourceforge.net/DTD/sodipodi-0.dtd"
   xmlns:inkscape="http://www.inkscape.org/namespaces/inkscape"
   role="img"
   width="48px"
   height="48px"
   viewBox="0 0 24 24"
   aria-labelledby="favouriteIconTitle"
   stroke="#DDC3f7"
   stroke-width="2"
   stroke-linecap="square"
   stroke-linejoin="miter"
   fill="none"
   color="#DDC3f7"
   version="1.1"
   id="svg24"
   sodipodi:docname="favourite-color.svg"
   inkscape:version="1.0.1 (3bc2e813f5, 2020-09-07)">
  <metadata
     id="metadata30">
    <rdf:RDF>
      <cc:Work
         rdf:about="">
        <dc:format>image/svg+xml</dc:format>
        <dc:type
           rdf:resource="http://purl.org/dc/dcmitype/StillImage" />
      </cc:Work>
    </rdf:RDF>
  </metadata>
  <defs
     id="defs28" />
  <sodipodi:namedview
     pagecolor="#ffffff"
     bordercolor="#666666"
     borderopacity="1"
     objecttolerance="10"
     gridtolerance="10"
     guidetolerance="10"
     inkscape:pageopacity="0"
     inkscape:pageshadow="2"
     inkscape:window-width="1280"
     inkscape:window-height="738"
     id="namedview26"
     showgrid="false"
     inkscape:zoom="11"
     inkscape:cx="24"
     inkscape:cy="24"
     inkscape:window-x="-6"
     inkscape:window-y="-6"
     inkscape:window-maximized="1"
     inkscape:current-layer="svg24" />
  <title
     id="favouriteIconTitle">Favourite</title>
  <path
     d="M12,21 L10.55,19.7051771 C5.4,15.1242507 2,12.1029973 2,8.39509537 C2,5.37384196 4.42,3 7.5,3 C9.24,3 10.91,3.79455041 12,5.05013624 C13.09,3.79455041 14.76,3 16.5,3 C19.58,3 22,5.37384196 22,8.39509537 C22,12.1029973 18.6,15.1242507 13.45,19.7149864 L12,21 Z"
     id="path22" />
  <path
     style="fill:none;stroke:#000000;stroke-width:0.5px;stroke-linecap:butt;stroke-linejoin:miter;stroke-opacity:1"
     d="m 8.181818,6.7727275 3.409091,4.9545455"
     id="path32" />
  <path
     style="fill:#ddf7c3;stroke:#000000;stroke-width:0.5px;stroke-linecap:butt;stroke-linejoin:miter;stroke-opacity:1;fill-opacity:1"
     d="m 16.409091,10.181818 -4.045454,5.045455"
     id="path34" />
  <path
     style="fill:#ddc3f7;fill-opacity:1;stroke-width:1"
     id="path36"
     d="M 8.0264305,7.196304 C 7.7620135,7.624771 7.499998,8.057307 7.303569,8.5224005 7.246843,8.6567135 7.201507,8.7955575 7.150476,8.9321355 7.133261,9.064722 7.0705025,9.199232 7.0988325,9.3298955 c 0.0281,0.129595 0.117091,0.243629 0.2110055,0.3372475 0.347373,0.346281 0.9022475,0.404616 1.362168,0.379141 C 8.8382755,10.037074 9.0015855,9.998339 9.1663755,9.974366 9.3104275,9.928131 9.45886,9.8938035 9.598531,9.83566 9.905363,9.70793 10.594544,9.2321925 10.731514,9.129801 c 0.07553,-0.056466 0.278207,-0.2900125 0.310715,-0.40344 0.01505,-0.052506 -0.0074,-0.108986 -0.01116,-0.163479 -0.08817,-0.027825 -0.172424,-0.075109 -0.264497,-0.083474 -0.125941,-0.01144 -0.253876,0.0039 -0.37855,0.025055 C 9.9496615,8.578903 9.799015,8.65917 9.4099555,8.9117245 8.400389,9.5670755 8.657349,9.3423975 8.075717,10.025873 c -0.2102215,0.323878 -0.3465635,0.468131 -0.4395585,0.83734 -0.026925,0.106906 -0.042675,0.220023 -0.02921,0.329442 0.01136,0.09232 0.040265,0.190032 0.101732,0.259847 0.186697,0.212049 0.4188405,0.192228 0.671857,0.228763 0.361868,0.01233 0.7149805,-0.05239 1.0670115,-0.124654 0,0 0.49075,-0.373117 0.49075,-0.373117 v 0 C 9.58738,11.266381 9.2353155,11.3407 8.8718145,11.334271 8.6520835,11.307046 8.423964,11.326406 8.2553925,11.146646 8.198548,11.086029 8.169361,10.999725 8.1571175,10.917531 8.1421025,10.816747 8.1528175,10.711683 8.1758125,10.612413 8.258409,10.255758 8.3884655,10.121538 8.59022,9.808246 8.7179015,9.661657 8.861128,9.527275 8.9732655,9.3684795 c 0.020065,-0.02841 -0.026,-0.082641 0.0012,-0.1043345 0.3694445,-0.294816 0.807874,-0.4239975 1.2731305,-0.4251495 0.06865,-1.7e-4 0.136406,0.01561 0.204609,0.023415 0.0089,0.161033 0.03034,0.1320905 -0.09582,0.292456 -0.05725,0.072768 -0.230383,0.118885 -0.190288,0.202339 0.03768,0.078441 0.304876,-0.148927 0.247304,-0.083667 C 10.274492,9.430996 9.798106,9.5682395 9.628069,9.627851 9.464288,9.655346 9.3023525,9.6981675 9.136726,9.710332 8.6953165,9.742752 8.168447,9.689252 7.8305615,9.363482 7.745055,9.2810415 7.661115,9.1808575 7.6364405,9.0646725 7.6097955,8.93922 7.6695305,8.8103145 7.6860755,8.6831355 7.7373465,8.5483485 7.782395,8.411027 7.8398895,8.278775 8.0500385,7.7953765 8.340847,7.357521 8.635612,6.923314 c 0,0 -0.609166,0.2729905 -0.609166,0.2729905 z" />
  <path
     style="fill:#ddc3f7;fill-opacity:1;stroke-width:1"
     id="path38"
     d="M 7.279198,4.4857535 C 7.1131185,4.5539157 7.302563,4.475367 7.0698985,4.5757526 6.9588205,4.6236787 6.845887,4.6680552 6.7371305,4.7212714 6.459235,4.8572498 5.9529655,5.1656185 5.804481,5.251877 5.742465,5.3026655 5.67534,5.34779 5.6184325,5.4042435 c -0.270958,0.268797 -0.503876,0.664325 -0.6392631,1.0187955 -0.038961,0.102008 -0.066517,0.2080135 -0.099775,0.3120205 -0.1124052,0.462675 -0.1637815,0.958521 -0.016147,1.421605 0.099227,0.311242 0.1901224,0.408429 0.3676579,0.6766815 0.114656,0.094145 0.21791,0.2042125 0.343967,0.282435 0.6462675,0.40103 1.582165,0.4755975 2.3191925,0.3587455 0.165852,-0.026295 0.32542,-0.083035 0.48813,-0.124553 C 8.790429,9.1132065 9.2744855,9.005218 9.450108,8.535873 9.493248,8.420591 9.5059175,8.292816 9.499333,8.169904 9.481768,7.8419635 9.3598355,7.637065 9.1557645,7.384161 9.0551775,7.259504 8.930648,7.1562335 8.8180895,7.04227 8.439744,6.8299635 8.3039295,6.697715 7.850111,6.673341 7.6679955,6.663561 7.481787,6.683926 7.306305,6.7336015 6.853104,6.861899 6.1288465,7.401909 5.864599,7.637378 5.720622,7.7656745 5.6353385,7.947534 5.5207085,8.1026125 5.3372555,8.4724175 5.0389165,8.923808 5.2908255,9.344057 5.3501245,9.442984 5.4350315,9.5389055 5.541998,9.582045 5.871856,9.7150745 6.3045745,9.61159 6.628391,9.571265 6.8388425,9.5030665 7.0552445,9.45105 7.2597455,9.3666695 7.7264975,9.17408 8.462856,8.7028525 8.8035515,8.4421105 9.0228075,8.2743085 9.2817455,7.9450125 9.383181,7.677646 9.423511,7.5713495 9.420951,7.4534265 9.439835,7.3413165 9.414585,7.194438 9.424255,6.9495775 9.223582,6.8869055 8.8153325,6.759405 8.0401045,7.379684 7.9427415,7.4584725 7.6504255,7.695021 7.320249,8.380894 7.156541,8.680327 7.044238,9.2303305 6.852816,9.834654 7.012564,10.407244 c 0.187547,0.67223 0.749129,1.327561 1.32039,1.695708 0.9306265,0.59974 1.47967,0.582891 2.538298,0.764164 0.406022,0.0015 0.814284,0.04691 1.218066,0.0043 0.588678,-0.06213 1.299372,-0.304659 1.823615,-0.591989 0.436109,-0.239025 1.075484,-0.605286 1.429624,-1.034626 0.07938,-0.09624 0.121907,-0.217688 0.182861,-0.326532 -0.03627,-0.05211 -0.04537,-0.153797 -0.108801,-0.156333 -0.125216,-0.005 -0.245444,0.06848 -0.349704,0.138005 -0.311857,0.207968 -0.616919,0.43074 -0.889305,0.688251 -0.149301,0.141148 -0.255913,0.322634 -0.364482,0.497065 -0.278917,0.448119 -0.26532,0.511144 -0.404926,0.986227 -9.5e-5,0.124662 -0.03102,0.253174 -2.84e-4,0.373988 0.05585,0.219521 0.227576,0.334438 0.454766,0.297174 0.361098,-0.05923 1.175618,-0.756781 1.241413,-0.820297 0.141487,-0.136582 0.215058,-0.329305 0.322587,-0.493958 0.364953,-0.714791 0.591639,-1.498127 0.585215,-2.305897 -0.0028,-0.3538565 -0.04483,-0.465265 -0.119388,-0.7917235 0,0 -0.534722,0.2891985 -0.534722,0.2891985 v 0 c 0.08696,0.3178135 0.130276,0.410684 0.141494,0.760468 0.01844,0.574893 -0.09434,1.157138 -0.305914,1.690485 -0.07908,0.199352 -0.184936,0.38701 -0.277404,0.580516 -0.114368,0.163381 -0.272116,0.303773 -0.343105,0.490144 -0.01737,0.04561 0.164806,0.02275 0.133486,0.06018 -0.106471,0.127244 -0.424758,0.2568 -0.603239,0.166448 -0.219908,-0.111324 -0.161997,-0.361202 -0.169322,-0.546422 0.125222,-0.455544 0.111336,-0.527456 0.386047,-0.954849 0.112632,-0.175231 0.293237,-0.306447 0.380935,-0.495393 0.01989,-0.04286 -0.133051,-0.05028 -0.108827,-0.09086 0.171086,-0.286589 0.23099,-0.204654 0.378914,-0.11376 -0.05142,0.09817 -0.08482,0.208136 -0.154257,0.294497 -0.108831,0.135347 -0.250667,0.240472 -0.374127,0.362621 -0.04852,0.048 -0.08185,0.115046 -0.141744,0.147777 -0.561724,0.306962 -1.230316,0.570008 -1.867724,0.649666 -0.407812,0.05096 -0.821907,0.01001 -1.232861,0.01502 C 10.138342,12.458124 9.6286905,12.490587 8.7076785,11.872099 8.1447025,11.494043 7.628254,10.850027 7.455608,10.17994 7.299879,9.575512 7.496553,9.0435275 7.629845,8.4689265 7.760435,8.242469 7.8719535,8.003886 8.0216155,7.789554 8.156964,7.5957205 8.344786,7.4424765 8.481343,7.2494925 c 0.01883,-0.02661 -0.126945,0.02924 -0.094734,0.024245 0.09946,-0.01542 0.197977,-0.074718 0.296789,-0.055575 0.1870845,0.036245 0.181612,0.270492 0.20554,0.3928025 C 8.83769,7.942372 8.869648,7.975155 8.640748,8.275663 8.5373425,8.4114175 8.3959835,8.514504 8.287612,8.646328 8.269567,8.668278 8.291712,8.713827 8.267852,8.729256 7.796527,9.034 7.602279,9.0619295 7.0770075,9.236682 6.7894915,9.273107 6.3620555,9.371615 6.0627775,9.259657 5.964237,9.222792 5.882684,9.139829 5.825503,9.0515145 5.573697,8.662605 5.865238,8.2238965 6.036297,7.8804825 6.151764,7.729392 6.2898715,7.593176 6.3826975,7.4272115 c 0.01759,-0.03145 -0.064579,-0.080255 -0.035835,-0.101987 0.4436685,-0.335461 1.023317,-0.4107925 1.540397,-0.220156 0.155281,0.057249 0.289318,0.16079 0.433977,0.241185 0.1092755,0.1110475 0.231459,0.210726 0.327827,0.333143 0.19022,0.241639 0.2996475,0.447507 0.3054155,0.7577185 0.00215,0.1153635 -0.01489,0.2346145 -0.05961,0.340979 C 8.849529,8.885928 8.719964,8.950407 8.691013,9.0637455 8.677773,9.1155885 8.789165,9.0211055 8.838241,8.9997815 8.673049,9.0473565 8.511692,9.1111735 8.342665,9.1425005 7.6094615,9.2783905 6.717221,9.2121815 6.075622,8.802541 5.956254,8.7263285 5.8588855,8.620186 5.750517,8.529008 5.5713405,8.259866 5.493429,8.185174 5.397356,7.871211 5.257252,7.4133565 5.312914,6.9273895 5.434656,6.474095 5.469506,6.371845 5.49895,6.2675895 5.539208,6.1673455 5.686255,5.801191 5.9108625,5.4369705 6.2044785,5.169555 6.2640575,5.1152925 6.332911,5.0721825 6.397127,5.023496 6.279583,5.090012 6.1605695,5.153996 6.0444955,5.2230445 c -0.061791,0.03676 0.1254225,-0.070439 0.18971,-0.1026315 0.117522,-0.058849 0.203372,-0.090917 0.323379,-0.1399188 0.1394825,-0.056955 0.085126,-0.033052 0.188884,-0.080867 0,0 0.5327325,-0.4138779 0.5327325,-0.4138779 z" />
  <path
     style="fill:#ddc3f7;fill-opacity:1;stroke-width:1"
     id="path40"
     d="M 11.550165,6.4296655 C 11.351038,6.0768915 11.12967,5.733887 10.839371,5.448065 10.764873,5.374716 10.683644,5.308533 10.605781,5.238767 10.520196,5.176563 10.438223,5.1090585 10.349027,5.0521545 10.129246,4.9119426 9.940439,4.8285814 9.698192,4.7288822 9.4725905,4.6360334 9.238347,4.5520407 9.002986,4.4872096 8.884731,4.4546358 8.764336,4.4304008 8.645011,4.4019963 8.178168,4.2912157 7.701182,4.2428395 7.2250425,4.1939224 6.860116,4.14654 6.494667,4.108751 6.1266285,4.1016065 5.974156,4.1104355 5.9102525,4.1070797 5.7599745,4.1448542 5.352271,4.2473361 4.9667791,4.4809531 4.6748116,4.7822269 4.6197841,4.8390084 4.5708108,4.9013592 4.5188103,4.9609254 4.3065758,5.228969 4.1557619,5.535031 4.0435336,5.8567815 4.0039901,5.97015 3.9301205,6.235205 3.8966112,6.3526695 3.758106,6.815926 3.7097485,7.2967945 3.6866019,7.7776025 c -0.00599,0.3332285 -0.025555,0.667852 -0.01411,1.0012205 0.00672,0.1958985 0.028959,0.381925 0.048721,0.5768275 0.055708,0.337084 0.11688,0.6744385 0.239444,0.9950395 0.2010975,0.526028 0.4844777,1.014118 0.7598707,1.50304 0.6745317,1.153444 1.4193343,2.2642 2.2313442,3.325336 0.1641585,0.214523 0.3342435,0.424445 0.5013655,0.636667 0.6118651,0.759171 1.2089081,1.535459 1.8777306,2.246596 0.2116065,0.224994 0.9143891,0.918503 1.1402621,1.14257 0.400331,0.378155 0.779945,0.781007 1.201848,1.136128 0.139459,0.117384 0.256524,0.211688 0.42281,0.280816 0.04561,0.01896 0.09537,0.02572 0.143058,0.03858 0.653168,0.0089 0.899131,-0.502167 1.083146,-0.989088 0.0646,-0.170945 0.1252,-0.343377 0.1878,-0.515066 0.551526,-1.463215 1.117838,-2.921668 1.634974,-4.39758 0.115233,-0.32888 0.224321,-0.659883 0.33648,-0.989824 0.105015,-0.324611 0.209252,-0.649476 0.315047,-0.973834 0.200056,-0.613354 0.344751,-1.065762 0.56774,-1.664142 0.22411,-0.601388 0.480879,-1.1883335 0.741727,-1.774336 0.256625,-0.5545055 0.517834,-1.11157 0.710391,-1.692654 0.09363,-0.2825465 0.107259,-0.3700505 0.172607,-0.653011 0.0853,-0.377242 0.07865,-0.756263 -0.01051,-1.131537 -0.0493,-0.2075035 -0.08434,-0.287658 -0.155664,-0.4851705 -0.02989,-0.065011 -0.05034,-0.135253 -0.08965,-0.195035 -0.06473,-0.098423 -0.2039,-0.233146 -0.325605,-0.2607134 -0.105472,-0.023891 -0.21627,-0.01849 -0.324212,-0.0119 -0.353522,0.021582 -0.471403,0.084752 -0.820765,0.1947162 -0.611895,0.3938425 -0.993272,0.5346485 -1.40521,1.07897 -0.335298,0.443051 -0.562281,0.9658385 -0.764162,1.47761 -0.111231,0.2819745 -0.21901,0.5661835 -0.302405,0.857606 -0.09248,0.3231615 -0.149567,0.6554175 -0.22435,0.9831265 -0.05668,0.3398905 -0.131106,0.6772942 -0.170047,1.0196712 -0.08726,0.767175 -0.09695,1.552831 -0.05895,2.323102 0.02777,0.563 0.125149,1.524049 0.244086,2.093044 0.05604,0.268078 0.147642,0.527471 0.221463,0.791206 0.103534,0.216959 0.30536,0.781286 0.586987,0.919139 0.127789,0.06255 0.298979,0.07988 0.426501,0.01679 0.390082,-0.193 0.748714,-0.456245 1.065299,-0.754887 0.478275,-0.451166 0.996382,-1.4751 1.296163,-2.002283 0.572205,-1.188519 1.035524,-2.428961 1.38645,-3.700468 0.01531,-0.05545 0.374485,-1.3437742 0.265749,-1.5731122 -0.05473,-0.1154355 -0.252246,-0.04068 -0.378369,-0.061021 -0.368252,0.2545575 -0.762541,0.4750575 -1.104755,0.7636725 -0.252428,0.2128915 -0.454859,0.479325 -0.668069,0.7314847 -0.586686,0.693863 -1.184979,1.482801 -1.503952,2.344737 -0.06711,0.181352 -0.09166,0.375726 -0.137486,0.563588 0.03591,0.131159 0.01506,0.293953 0.10773,0.393475 0.09746,0.104668 0.259041,0.134808 0.400923,0.152797 0.377113,0.04781 0.745887,-0.07826 1.065076,-0.266623 0.965112,-0.569555 0.790817,-0.441162 1.300166,-1.116058 0.170487,-0.381459 0.472715,-0.90993 0.242914,-1.341866 -0.06707,-0.126059 -0.169543,-0.244594 -0.297265,-0.308437 -0.474143,-0.237005 -0.875749,-0.0637 -1.366289,0.02152 -0.335384,0.147995 -0.684498,0.268136 -1.006153,0.443986 -0.916456,0.501031 -1.613907,0.994926 -2.421606,1.62249 -0.404453,0.314251 -1.086197,0.884414 -1.479628,1.25162 -0.144622,0.134983 -0.277879,0.281651 -0.416819,0.422476 -0.05496,0.07878 -0.142567,0.142901 -0.164883,0.236326 -0.0098,0.04112 0.04394,0.09292 0.08622,0.09302 0.08469,1.96e-4 0.164202,-0.04853 0.236725,-0.09227 0.268872,-0.162146 0.534519,-0.331577 0.783434,-0.522951 0.157565,-0.121141 0.304805,-0.361346 0.415568,-0.523069 -0.137014,0.198994 0.244605,-0.406936 0.118843,-0.372602 -0.249695,0.06817 -0.48989,0.1825 -0.70353,0.328623 -0.08625,0.05899 -0.115345,0.174543 -0.165863,0.266016 -0.239844,0.434283 -0.196593,0.383832 -0.354887,0.873673 -0.02858,0.155485 -0.07193,0.30897 -0.08574,0.466455 -0.03029,0.345278 0.03224,0.697016 0.191466,1.005029 0.03229,0.06246 0.0766,0.117936 0.114898,0.176904 0,0 0.550418,-0.324018 0.550418,-0.324018 v 0 c -0.04004,-0.05357 -0.08592,-0.103223 -0.120117,-0.160696 -0.169891,-0.285567 -0.238897,-0.62158 -0.212043,-0.952621 0.01251,-0.154149 0.05593,-0.304211 0.0839,-0.456317 0.15118,-0.428803 0.144472,-0.498916 0.395507,-0.872252 0.06249,-0.09294 0.324591,-0.236681 0.214725,-0.258423 -0.863013,-0.170788 -0.430244,0.101512 -0.493222,0.308851 -0.02317,0.07628 -0.06634,0.144997 -0.0995,0.217496 -0.05845,0.08365 -0.110317,0.172308 -0.17536,0.25094 -0.07498,0.09064 -0.269916,0.140798 -0.243498,0.255423 0.02224,0.09648 0.181514,-0.121589 0.278698,-0.102688 0.04876,0.0095 -0.589048,0.377194 -0.131923,-0.0576 0.121465,-0.132106 0.235989,-0.270945 0.364393,-0.396317 0.366972,-0.358306 1.026735,-0.920019 1.408243,-1.218283 0.220071,-0.172053 1.304929,-0.988452 1.666912,-1.18121 0.306144,-0.163024 0.635271,-0.278629 0.952907,-0.417943 0.447165,-0.07512 0.835069,-0.233611 1.26995,-0.02107 0.118076,0.05771 0.213454,0.165741 0.276517,0.281046 0.225798,0.412855 -0.06159,0.916456 -0.229094,1.280075 -0.117378,0.150343 -0.250202,0.289813 -0.352134,0.451028 -0.01716,0.02714 0.03315,0.07868 0.0062,0.09611 -0.313443,0.202666 -0.637036,0.306969 -1.010223,0.279347 -0.127559,-0.0094 -0.274633,-0.01981 -0.36863,-0.106557 -0.09112,-0.08408 -0.08403,-0.233299 -0.12604,-0.349949 0.03459,-0.178383 0.04671,-0.362639 0.103779,-0.535151 0.280293,-0.847279 0.88449,-1.647543 1.463567,-2.3094017 0.225888,-0.2581785 0.485723,-0.4851685 0.713129,-0.742011 0.05707,-0.064454 0.09162,-0.1457695 0.137435,-0.2186545 0.516413,-0.059788 0.470123,-0.18071 0.38627,0.563519 -0.03445,0.30574 -0.107982,0.6062192 -0.181018,0.9051002 -0.311048,1.272902 -0.764621,2.508042 -1.358622,3.676407 -1.27396,2.117774 -0.08811,0.271446 -1.413522,2.034413 -0.0464,0.06172 -0.02958,0.176477 -0.09953,0.209162 -0.577515,0.269845 -0.848061,-0.475525 -1.045546,-0.831162 -0.08304,-0.256351 -0.185418,-0.507227 -0.249129,-0.769053 -0.07686,-0.315842 -0.128353,-0.637789 -0.171597,-0.959958 -0.200681,-1.495082 -0.155612,-2.979779 0.158999,-4.4560377 0.08211,-0.3292825 0.148835,-0.6627885 0.246335,-0.987847 0.149402,-0.4980955 0.435589,-1.2172955 0.688158,-1.6734615 0.518159,-0.9358535 0.282758,-0.401377 0.896014,-1.1184835 0.01281,-0.014975 -0.01392,-0.03687 -0.02088,-0.055305 0.359924,-0.1158595 0.424463,-0.1614875 0.78381,-0.1917125 0.09611,-0.00809 0.19449,-0.01709 0.289345,3.715e-4 0.208492,0.03838 0.323231,0.238067 0.398891,0.4112545 0.07277,0.194641 0.106864,0.2680795 0.155811,0.4735255 0.08706,0.3654045 0.08711,0.7372 0.0076,1.104328 -0.06367,0.288877 -0.07074,0.350235 -0.16253,0.6401785 -0.181669,0.5738235 -0.434224,1.1218775 -0.675689,1.6719985 -0.250393,0.5791377 -0.486905,1.1609367 -0.694319,1.7572387 -0.234523,0.674236 -0.307991,0.949044 -0.528734,1.64686 -0.102564,0.324228 -0.207657,0.647649 -0.311487,0.971474 -0.109609,0.328389 -0.215172,0.658156 -0.328828,0.985167 -0.521983,1.501846 -1.126272,2.973152 -1.734329,4.441652 -0.05626,0.127883 -0.276031,0.642274 -0.375957,0.829705 -0.03355,0.06293 -0.07077,0.124251 -0.113294,0.181505 -0.03256,0.04384 -0.162321,0.139201 -0.111017,0.120483 0.984318,-0.359113 0.566603,-0.271312 0.374608,-0.236076 -0.04843,-0.0062 -0.09831,-0.0053 -0.145294,-0.01863 -0.29788,-0.08423 -0.556064,-0.315754 -0.786866,-0.507113 C 11.468753,19.4539 11.279389,19.271546 10.911113,18.934846 10.722539,18.750827 10.530052,18.570734 10.345391,18.382788 9.9255265,17.955455 9.6929725,17.689489 9.306898,17.244581 9.1322915,17.043367 8.547337,16.357765 8.381501,16.157104 8.216575,15.957544 8.055807,15.754585 7.8929605,15.553325 7.536877,15.102757 7.237305,14.73275 6.8989305,14.268169 6.2741175,13.410312 5.7086955,12.509801 5.1938485,11.582065 4.9755316,11.16595 4.8387509,10.927996 4.6588392,10.503787 4.4640626,10.044529 4.3303789,9.5643415 4.2711027,9.0687785 4.2490654,8.8275845 4.2362512,8.735 4.2312265,8.494418 4.224266,8.161141 4.243092,7.827278 4.250354,7.4942015 4.2792095,7.0179115 4.3258801,6.541726 4.4647892,6.0827055 4.5056662,5.938173 4.56051,5.73491 4.6112068,5.5940835 4.7257579,5.275883 4.8870795,4.9779387 5.1016903,4.7159146 c 0.053441,-0.057505 0.103402,-0.1184511 0.1603215,-0.1725148 0.055252,-0.05248 0.2487305,-0.1676244 0.17552,-0.1464774 -0.135421,0.039116 -0.2562205,0.1211096 -0.370993,0.2029399 -0.052349,0.037324 0.1190435,-0.049265 0.1807535,-0.067303 0.145251,-0.042458 0.2097175,-0.04074 0.358588,-0.053662 0.3670045,0.0026 0.732007,0.039517 1.0957335,0.087396 0.4834005,0.047133 0.969528,0.079168 1.4458525,0.1799753 0.1184295,0.027315 0.237868,0.050575 0.3552885,0.081945 0.5635985,0.1505738 1.115222,0.3770059 1.5789782,0.7357254 0.07644,0.068214 0.156571,0.13251 0.229328,0.2046415 0.282113,0.2796865 0.505307,0.6185885 0.651605,0.9874865 0,0 0.587499,-0.326402 0.587499,-0.3264015 z" />
  <path
     style="fill:#ddc3f7;fill-opacity:1;stroke-width:1"
     id="path42"
     d="M 12.523165,18.937025 C 12.410622,18.757833 12.312792,18.569988 12.203624,18.388829 12.083451,18.189408 11.957152,17.993727 11.836448,17.794626 11.552943,17.326978 11.003883,16.400528 10.751606,15.956044 10.55028,15.601328 10.357205,15.241993 10.160005,14.884967 9.9590105,14.496044 9.752195,14.110074 9.557021,13.718198 9.2065895,13.014592 8.7177125,11.96212 8.3979095,11.246571 8.07105,10.515235 7.77972,9.8324665 7.487708,9.089692 7.3805165,8.8170345 7.281412,8.541266 7.1782635,8.2670535 7.0790345,7.971245 6.890728,7.472843 6.845646,7.1385025 6.830641,7.027238 6.7867195,6.8938705 6.850866,6.801729 7.2828425,6.1812295 7.101718,6.727717 7.383439,6.7348675 c 0.2919105,0.00741 0.5801825,-0.06675 0.8702735,-0.1001255 1.15812,-0.064373 0.5944455,-0.04336 1.690899,-0.066311 0,0 0.4140355,-0.302501 0.4140355,-0.302501 v 0 C 9.24848,6.3016805 9.815926,6.2787555 8.6563615,6.3359935 7.641815,6.4227015 7.739103,6.3414835 6.6620515,6.822903 6.528423,6.882632 6.3774045,6.953014 6.30708,7.0813825 c -0.053694,0.098013 0.00561,0.224925 0.030455,0.333883 0.068799,0.301632 0.3026405,0.839108 0.4059175,1.0947735 0.4243015,0.982919 0.8681475,1.955642 1.312172,2.929802 0.5596285,1.227787 1.11135,2.459896 1.7355815,3.656903 0.398188,0.736234 0.744602,1.372518 1.135177,2.111024 0.318539,0.602298 0.638155,1.207421 0.922385,1.827147 0.03453,0.07528 0.06493,0.152387 0.0974,0.228582 0,0 0.576996,-0.326472 0.576997,-0.326472 z" />
  <path
     style="fill:#ddc3f7;fill-opacity:1;stroke-width:1"
     id="path44"
     d="M 7.006444,5.1311645 C 6.4522205,5.69837 5.75248,6.099424 5.0823275,6.512274 4.5548468,6.864767 3.9467721,7.1105305 3.4713638,7.539349 c -0.048003,0.0433 -0.090731,0.092108 -0.1360964,0.1381615 0,0 0.5932364,-0.245653 0.5932364,-0.245653 v 0 c 0.044086,-0.04321 0.086076,-0.088664 0.1322591,-0.129624 C 4.5192913,6.895562 5.094444,6.6497955 5.599991,6.3117935 6.301585,5.877261 7.027455,5.4539255 7.6229605,4.8757951 c 0,0 -0.6165165,0.2553694 -0.6165165,0.2553694 z" />
  <path
     style="fill:#ddc3f7;fill-opacity:1;stroke-width:1"
     id="path46"
     d="m 2.7028482,7.4948165 c 0.021547,0.562258 0.033878,1.1247295 0.056653,1.6870255 0.012224,0.210511 0.024646,0.4211035 0.043054,0.63119 0.00294,0.03358 0.00568,0.067205 0.010029,0.100633 0.00169,0.01297 -0.00372,0.04405 0.00807,0.038395 C 3.0293773,9.851988 3.226481,9.729306 3.4293919,9.6179285 3.4181694,9.3544365 3.4166369,9.0905825 3.4120403,8.826912 c 0,0 -0.5515769,0.280746 -0.5515769,0.280746 v 0 c -0.00679,0.2658885 -0.00176,0.5357735 -0.042488,0.799105 0.1976515,-0.094321 0.3987202,-0.181793 0.5929543,-0.2829655 0.00686,-0.0036 -0.011533,-0.01134 -0.01364,-0.018785 -0.00872,-0.03082 -0.012863,-0.062765 -0.018363,-0.094319 -0.035267,-0.202332 -0.055312,-0.406813 -0.071374,-0.611468 -0.032472,-0.568611 -0.047247,-1.1382765 -0.0104,-1.7072205 0,0 -0.5943036,0.3028125 -0.5943036,0.3028125 z" />
  <path
     style="fill:#ddc3f7;fill-opacity:1;stroke-width:1"
     id="path48"
     d="m 2.7452564,7.2819275 c 0.021954,0.615382 0.057288,1.229427 0.1131099,1.8428115 0.036284,0.4471815 0.1266815,0.888143 0.2670816,1.314182 0.051226,0.155443 0.2289811,0.6305 0.2847882,0.781029 0.1260675,0.326716 0.1458706,0.385353 0.2773183,0.69899 0.083052,0.198163 0.1332585,0.331813 0.2517753,0.509352 0.1179294,0.176658 0.1746658,0.217984 0.3219706,0.362134 0.055267,0.04251 0.1105331,0.08501 0.1657997,0.127515 0,0 0.5395298,-0.341566 0.5395298,-0.341566 v 0 C 4.9114836,12.536794 4.8563374,12.497213 4.8011913,12.457632 4.6463361,12.315286 4.6061044,12.29307 4.4814113,12.114825 4.2311229,11.757045 4.1026242,11.327744 3.9293517,10.931998 3.8192665,10.629516 3.7512118,10.455597 3.6581095,10.148543 3.5293587,9.723918 3.4430665,9.286616 3.3928071,8.8459845 3.3305591,8.224209 3.2903119,7.6003145 3.3456527,6.9760105 c 0,0 -0.6003963,0.305917 -0.6003963,0.305917 z" />
  <path
     style="fill:#ddc3f7;fill-opacity:1;stroke-width:1"
     id="path50"
     d="m 5.197493,9.052605 c 0.359015,0.68597 0.660587,1.401126 1.0395125,2.077153 0.3059215,0.545784 0.65887,1.082353 0.9949085,1.609316 0.5883435,0.911932 1.219339,1.795096 1.8146135,2.702351 0,0 0.515214,-0.303653 0.515214,-0.303653 v 0 C 8.9074585,14.269441 8.2421245,13.407971 7.647119,12.497094 7.477034,12.226417 7.300155,11.959894 7.136864,11.685065 6.640713,10.850015 6.2201545,9.966905 5.885339,9.054728 5.845484,8.9461445 5.813009,8.834992 5.776844,8.7251245 c 0,0 -0.579351,0.3274805 -0.579351,0.3274805 z" />
  <path
     style="fill:#ddc3f7;fill-opacity:1;stroke-width:1"
     id="path52"
     d="m 4.456735,9.4448645 c 0.3334842,0.6441845 0.6622755,1.2915535 1.0326275,1.9157315 0.123244,0.207711 0.253076,0.411442 0.3796135,0.617163 0.126925,0.198688 0.2493535,0.400321 0.3807745,0.596065 0.3276465,0.488007 0.57574,0.792552 0.8972675,1.289705 0.4704515,0.727423 0.866811,1.494228 1.26798,2.260735 0.2784465,0.50621 0.5210765,1.032551 0.8219955,1.52643 0.149069,0.244657 0.188744,0.287077 0.3491105,0.497789 0,0 0.538289,-0.322634 0.538289,-0.322634 v 0 c -0.057,-0.06446 -0.116962,-0.126403 -0.1709885,-0.193368 C 9.5177175,17.092449 9.206925,16.466166 8.858741,15.869995 8.6618695,15.509488 8.2381635,14.73047 8.041978,14.384563 7.893568,14.122892 7.747658,13.859571 7.588687,13.60418 7.447285,13.377013 6.867336,12.540731 6.7106775,12.304787 6.5805045,12.108732 6.455295,11.909427 6.327604,11.711747 6.204716,11.504719 6.077377,11.30027 5.958939,11.090664 5.6021595,10.459252 5.284662,9.8021165 5.0413075,9.118424 c 0,0 -0.5845725,0.3264405 -0.5845725,0.3264405 z" />
  <path
     style="fill:#ddc3f7;fill-opacity:1;stroke-width:1"
     id="path54"
     d="m 8.603585,15.475932 c 0.601024,0.586638 1.127855,1.241062 1.652801,1.894914 0.115939,0.149264 0.231877,0.298527 0.347816,0.44779 0,0 0.483211,-0.288537 0.483211,-0.288537 v 0 c -0.119317,-0.147292 -0.238634,-0.294584 -0.357951,-0.441875 -0.02803,-0.03544 -0.723719,-0.915061 -0.759535,-0.960998 -0.1099465,-0.14102 -0.2156835,-0.285312 -0.3268105,-0.425403 -0.214994,-0.27103 -0.189284,-0.216553 -0.371669,-0.450302 -0.03243,-0.04156 -0.062259,-0.08509 -0.093388,-0.127627 0,0 -0.5744745,0.352038 -0.5744745,0.352038 z" />
  <path
     style="fill:#ddc3f7;fill-opacity:1;stroke-width:1"
     id="path56"
     d="m 10.184471,14.027839 c 0.605352,0.964511 1.108127,1.987861 1.597693,3.014451 0,0 0.483169,-0.27496 0.483169,-0.27496 v 0 c -0.52363,-1.011458 -1.060452,-2.018729 -1.497216,-3.07181 0,0 -0.583646,0.332319 -0.583646,0.332319 z" />
  <path
     style="fill:#ddc3f7;fill-opacity:1;stroke-width:1"
     id="path58"
     d="m 10.06167,12.516061 c 0.07453,0.0669 0.151597,0.13107 0.223588,0.200691 0.24797,0.239805 0.598858,0.611878 0.819597,0.85598 0.415811,0.459822 0.6701,0.75763 1.052384,1.254039 0.175911,0.228425 0.342555,0.463839 0.513833,0.695759 0.46804,0.634381 0.885175,1.304222 1.350928,1.939921 0,0 0.519463,-0.310853 0.519463,-0.310853 v 0 C 14.46034,17.06053 14.374851,16.97317 14.298092,16.878394 14.18655,16.740667 14.083408,16.596341 13.976993,16.454616 13.561054,15.900665 13.532308,15.856995 13.101608,15.267553 12.673066,14.68331 12.517976,14.458942 12.066669,13.894789 11.598745,13.309864 11.10132,12.748876 10.625151,12.17076 c 0,0 -0.563481,0.345301 -0.563481,0.345301 z" />
  <path
     style="fill:#ddc3f7;fill-opacity:1;stroke-width:1"
     id="path60"
     d="m 12.97753,9.313263 c 0.46983,1.013477 0.960079,2.017269 1.435577,3.028058 0.220638,0.531186 0.129315,0.289406 0.282612,0.722019 0,0 0.539954,-0.303013 0.539954,-0.303013 v 0 c -0.203662,-0.408043 -0.08852,-0.178062 -0.345943,-0.689689 -0.501906,-0.999223 -0.995837,-2.007618 -1.336594,-3.075506 0,0 -0.575606,0.318131 -0.575606,0.318131 z" />
  <path
     style="fill:#ddc3f7;fill-opacity:1;stroke-width:1"
     id="path62"
     d="m 11.385367,10.192949 c 0.536277,0.763057 0.922965,1.619204 1.265101,2.483348 0.09319,0.235356 0.176929,0.474342 0.265393,0.711513 0.07218,0.205677 0.144361,0.411353 0.216542,0.61703 0,0 0.476592,-0.264518 0.476592,-0.264518 v 0 c -0.07878,-0.202189 -0.157572,-0.404378 -0.236357,-0.606568 -0.429541,-1.107735 -0.838882,-2.231456 -1.423947,-3.269287 0,0 -0.563324,0.328482 -0.563324,0.328482 z" />
  <path
     style="fill:#ddc3f7;fill-opacity:1;stroke-width:1"
     id="path64"
     d="M 5.888569,6.975131 C 6.2233165,6.633097 6.561529,6.297164 6.9441535,6.007323 7.076168,5.9073215 7.21406,5.8153245 7.349013,5.719325 7.549005,5.836267 7.339738,5.723575 7.926122,5.5052465 8.4627475,5.3054585 9.025505,5.146455 9.59619,5.084526 c 0.151036,-0.01639 0.30343,-0.015895 0.455145,-0.02384 0.122597,0.00325 0.245193,0.00646 0.367791,0.00969 0,0 0.488334,-0.3536003 0.488334,-0.3536003 v 0 c -0.128333,-7.95e-4 -0.256666,-0.0016 -0.385,-0.00239 -0.156668,0.00919 -0.314039,0.010128 -0.470004,0.027569 C 9.6445365,4.7875652 9.349335,4.857852 8.9523775,4.9723637 8.6230685,5.0673607 8.1236795,5.2301917 7.8133105,5.3844222 7.472762,5.5536497 7.145875,5.7490802 6.8121575,5.9314092 6.676518,6.0288912 6.538175,6.1227176 6.4052395,6.2238556 c -0.404684,0.307885 -0.7671715,0.66171 -1.137654,1.0084931 0,0 0.6209835,-0.2572195 0.6209835,-0.2572195 z" />
  <path
     style="fill:#ddc3f7;fill-opacity:1;stroke-width:1"
     id="path66"
     d="m 9.3658105,6.3474305 c 0.7742135,0.27599 1.5385975,0.578176 2.3024135,0.8814305 0,0 0.468171,-0.314287 0.468171,-0.314287 v 0 C 11.388927,6.6295495 10.638386,6.3429395 9.9247505,5.979668 c 0,0 -0.55894,0.3677625 -0.55894,0.3677625 z" />
  <path
     style="fill:#ddc3f7;fill-opacity:1;stroke-width:1"
     id="path68"
     d="m 9.1397755,6.2837 c 0.6733695,0.4137195 1.3841355,0.7608185 2.0706185,1.1514705 0.260842,0.148436 0.517672,0.3038135 0.776507,0.45572 0.569821,0.3450975 1.125482,0.7124585 1.68738,1.070081 0,0 0.48866,-0.3175485 0.48866,-0.3175485 v 0 C 14.019863,8.569609 13.874213,8.5005795 13.733707,8.4219815 13.419767,8.2463655 12.680738,7.792526 12.401335,7.622603 11.490645,7.070065 10.565899,6.537578 9.6923255,5.9268265 c 0,0 -0.55255,0.3568735 -0.55255,0.3568735 z" />
  <path
     style="fill:#ddc3f7;fill-opacity:1;stroke-width:1"
     id="path70"
     d="m 13.171827,5.9268355 c 0.171454,0.02482 0.338768,0.1160605 0.486792,0.196445 0.180791,0.098179 0.360267,0.1990825 0.535369,0.3070795 0.498451,0.3074275 0.876906,0.5833475 1.36098,0.9217615 0.709326,0.5086135 1.392891,1.051658 2.075788,1.5948065 0.04604,0.03662 0.782271,0.630903 0.894664,0.7039265 0.08985,0.05838 0.192698,0.093781 0.289047,0.1406715 0.399776,-0.023735 0.427626,0.00969 0.864826,-0.4720885 0.06174,-0.068032 -0.07119,-0.491617 -0.08293,-0.5362105 0,0 -0.548504,0.2961355 -0.548504,0.2961355 v 0 c 0.0196,0.08856 0.05159,0.1752635 0.0588,0.2656795 0.0061,0.075947 -0.0951,0.218642 -0.01946,0.227734 C 19.175579,9.583401 19.86274,9.2593595 19.3247,9.450697 19.220698,9.414287 19.109718,9.3937035 19.012696,9.3414675 18.853296,9.255646 18.162574,8.742161 18.067488,8.671527 17.364949,8.1496535 16.672516,7.614315 15.975822,7.0847235 15.134191,6.4633385 15.459245,6.697025 14.660708,6.1301675 14.425516,5.963212 14.070076,5.6809835 13.784774,5.5547395 c -0.01962,-0.00868 -0.04153,-0.01077 -0.0623,-0.016155 0,0 -0.550647,0.3882515 -0.550647,0.388251 z" />
  <path
     style="fill:#ddc3f7;fill-opacity:1;stroke-width:1"
     id="path72"
     d="m 15.263504,4.1009091 c 0.239577,0.1394055 0.409561,0.2331921 0.651505,0.4115839 0.819902,0.6045375 1.540083,1.3309945 2.242831,2.0642055 0.02087,0.02569 0.397672,0.4664105 0.438624,0.5817855 0.0081,0.022785 -0.06709,0.069354 -0.05241,0.050147 C 18.652121,7.067283 18.922049,6.9636135 18.877062,6.791469 18.829462,6.6093195 18.537991,6.6276865 18.370016,6.5426625 18.151255,6.4319315 17.93462,6.3170475 17.716922,6.2042395 16.986732,5.831659 16.254103,5.4511995 15.473778,5.1914105 15.091814,5.064246 14.597505,4.9501656 14.193852,4.8858493 c -0.151074,-0.024072 -0.304026,-0.034347 -0.456038,-0.05152 -0.111281,0.00363 -0.223185,-0.00141 -0.333843,0.010895 -0.312697,0.034768 -0.650444,0.2529575 -0.77926,0.5424039 -0.04828,0.1084735 0.142538,0.1909175 0.226299,0.275067 0.131493,0.132104 0.277914,0.2484635 0.417624,0.371846 0.182753,0.1613945 0.366507,0.321653 0.549761,0.4824795 1.177425,1.00398 2.270561,2.101161 3.273497,3.2786356 0.09136,0.119686 0.286985,0.3327327 0.323732,0.5069487 0.0096,0.04549 -0.06943,0.153104 -0.02579,0.137068 1.163211,-0.427447 0.260096,-0.247409 0.186891,-0.253435 -0.111769,-0.0092 -0.219397,-0.04661 -0.329095,-0.06992 C 17.099925,10.056742 16.947813,10.007105 16.804514,9.937599 16.18531,9.637259 15.620806,9.235823 15.046461,8.8609161 14.519979,8.5172526 14.578504,8.5584006 14.070267,8.2523066 13.830964,8.1192651 13.667346,8.0122706 13.415094,7.9232116 c -0.08668,-0.030605 -0.256605,-0.095095 -0.349031,-0.0068 -0.186759,0.178399 -0.475282,0.3245285 -0.513866,0.5799035 -0.02904,0.1921719 0.237698,0.3075595 0.356547,0.4613394 0.749627,0.881855 1.626328,1.6417285 2.434087,2.4679035 0.411503,0.420884 0.556834,0.590589 0.933455,1.009877 0.08291,0.09756 0.429316,0.496878 0.523582,0.634453 0.03954,0.0577 0.08259,0.117411 0.09774,0.185703 0.0052,0.02365 -0.05993,0.07604 -0.04367,0.05808 0.440364,-0.486427 0.505059,-0.325111 0.01258,-0.553872 -0.89175,-0.462596 -1.735774,-1.007932 -2.636552,-1.454428 -0.178091,-0.08827 -0.359947,-0.168741 -0.53992,-0.253112 -0.297249,-0.13041 -0.563944,-0.252469 -0.865332,-0.367453 -0.149271,-0.05695 -0.503187,-0.220063 -0.662203,-0.06848 -0.197968,0.18872 -0.368899,0.403904 -0.553349,0.605856 0.03454,0.139933 0.06328,0.281426 0.103619,0.419799 0.16416,0.563109 0.381455,1.111316 0.588551,1.659374 0.207723,0.549715 0.168066,0.44535 0.356475,0.962054 0.08682,0.287501 0.216274,0.566324 0.273554,0.862866 0.01015,0.05257 0.02319,0.106878 0.01553,0.159867 -0.0047,0.0325 -0.07989,0.0997 -0.05084,0.08438 0.166383,-0.08772 0.315572,-0.204754 0.473358,-0.307131 -0.04648,-0.0094 -0.100502,-0.0011 -0.139461,-0.02812 -0.220403,-0.152969 -0.464812,-0.518196 -0.592373,-0.710997 -0.126772,-0.191609 -0.244021,-0.389471 -0.3589,-0.58844 -0.3464,-0.599965 -0.413189,-0.758503 -0.718752,-1.374172 -0.09251,-0.200474 -0.185966,-0.400517 -0.27754,-0.601421 -0.06861,-0.150533 -0.269216,-0.611773 -0.36505,-0.793183 -0.03136,-0.05938 -0.04145,-0.187139 -0.106619,-0.170933 -0.72583,0.180489 -0.652078,0.184806 -0.633661,0.603858 0.02348,0.14765 0.04275,0.296028 0.07042,0.442949 0.06598,0.350282 0.210828,0.977109 0.286467,1.308642 0.173715,0.761408 0.349286,1.522382 0.522258,2.283962 0.165195,0.746269 0.08859,0.394217 0.23065,1.055975 0,0 0.513034,-0.277078 0.513034,-0.277078 v 0 c -0.176825,-0.643765 -0.08413,-0.300278 -0.276775,-1.030812 -0.191417,-0.757645 -0.368484,-1.515817 -0.522628,-2.282066 -0.07747,-0.38512 -0.188391,-0.931095 -0.232714,-1.330699 -0.01676,-0.151109 -0.01667,-0.303615 -0.02501,-0.455423 0.04209,-0.261527 0.160294,-0.60772 -0.482787,0.0073 -0.04722,0.04516 0.09278,0.09299 0.130087,0.146628 0.291413,0.418967 0.467817,0.908083 0.716687,1.350342 0.337498,0.66912 0.668132,1.340997 1.047372,1.98791 0.107649,0.183628 0.352692,0.615915 0.538398,0.791241 0.04229,0.03993 0.104953,0.05019 0.157429,0.07528 0.214979,-0.127054 0.443469,-0.233618 0.644937,-0.381162 0.05924,-0.04339 -7e-4,-0.248171 -0.007,-0.270911 -0.07983,-0.290019 -0.219275,-0.560321 -0.320324,-0.842528 -0.205779,-0.50431 -0.413488,-1.007459 -0.596028,-1.520854 -0.120365,-0.338526 -0.258545,-0.742833 -0.336747,-1.095844 -0.03069,-0.138543 -0.04333,-0.280478 -0.065,-0.420717 -0.17049,0.02723 -0.338969,0.08888 -0.51147,0.08169 -0.05507,-0.0023 0.08035,-0.0832 0.133603,-0.09743 0.0732,-0.01956 0.152549,-0.01131 0.227309,10e-4 0.107069,0.01767 0.210158,0.0547 0.313381,0.08817 0.343306,0.111347 0.550605,0.204294 0.893185,0.344089 0.496253,0.227405 0.608133,0.269531 1.094344,0.529945 0.696254,0.372913 1.363287,0.797017 2.040915,1.201889 0.505483,0.287243 0.30821,0.277859 1.093327,-0.06534 0.02775,-0.01213 0.0073,-0.0635 -0.0062,-0.09064 -0.06515,-0.131525 -0.289788,-0.358385 -0.367829,-0.441227 -0.10967,-0.116417 -0.221626,-0.230662 -0.332439,-0.345993 C 16.43554,11.832227 16.082145,11.472755 15.768313,11.164208 14.950621,10.360286 14.082422,9.5960655 13.39466,8.6720035 12.960284,7.947666 13.3501,8.262776 12.55761,8.3224945 c -0.05098,0.00385 0.07616,-0.078359 0.126626,-0.086516 0.07289,-0.01178 0.147902,0.012085 0.219378,0.030595 0.275541,0.07135 0.42525,0.1657025 0.688566,0.295999 0.156341,0.087343 0.314616,0.1713105 0.469022,0.26203 0.401273,0.2357615 0.719562,0.4461005 1.111528,0.7018915 0.251463,0.1641005 0.868626,0.578345 1.146722,0.733625 0.13694,0.07646 0.283002,0.135298 0.424504,0.202947 0.07219,0.02207 0.427371,0.16105 0.548599,0.105769 0.242267,-0.110475 0.477432,-0.246893 0.678762,-0.421147 0.04021,-0.0348 0.01048,-0.109499 -0.0081,-0.1593245 C 17.902109,9.8243445 17.683437,9.6080975 17.585246,9.496674 16.511355,8.3790505 15.398904,7.2990645 14.26892,6.238384 14.086801,6.0620765 13.570801,5.5743515 13.378032,5.3494325 13.312904,5.273442 13.306865,5.1122355 13.20726,5.102485 c -0.181639,-0.01778 -0.345229,0.1185625 -0.517227,0.1795995 -0.183068,0.064965 0.917178,-0.33284 0.572501,-0.10886 0.158684,0.010455 0.318113,0.012785 0.476053,0.03136 0.417783,0.04913 0.913311,0.147219 1.310109,0.272553 0.780051,0.246389 1.508536,0.6285155 2.224816,1.0165405 0.207406,0.1193375 0.416916,0.2350905 0.622218,0.3580125 0.154711,0.092631 0.277569,0.2783505 0.457604,0.288517 0.08353,0.0047 0.937652,-0.068252 0.779171,-0.3006845 C 19.053004,6.7229255 18.664369,6.343268 18.617147,6.2955685 18.068213,5.7575145 17.514152,5.225234 16.949166,4.7039441 16.767388,4.5362244 16.586359,4.3675787 16.399902,4.2050763 c -0.28517,-0.248533 -0.332128,-0.277537 -0.580326,-0.4590954 0,0 -0.556073,0.3549282 -0.556072,0.3549282 z" />
  <path
     style="fill:#ddc3f7;fill-opacity:1;stroke-width:1"
     id="path74"
     d="m 8.075317,5.5437065 c 0.4852995,0.55547 1.0073845,1.0747875 1.537149,1.587387 0.594553,0.5581915 1.17532,1.1305155 1.756061,1.702946 0.213357,0.2103055 0.429721,0.417585 0.64084,0.6301385 0.448939,0.4519925 0.63483,0.658614 1.05809,1.113437 0.39507,0.44143 0.770113,0.902699 1.11386,1.385459 0.243017,0.341297 0.460186,0.698654 0.672453,1.05941 0.153884,0.29421 0.329268,0.577022 0.474065,0.876061 0.03618,0.07472 0.07452,0.149073 0.100165,0.228036 0.01318,0.04059 -0.02352,0.145161 0.01516,0.127119 0.179283,-0.08365 0.316683,-0.23721 0.475024,-0.355815 -0.05649,-0.0308 -0.115618,-0.0572 -0.16948,-0.09241 -0.301265,-0.196893 -0.676621,-0.487205 -0.945178,-0.701082 -0.502044,-0.399825 -0.92607,-0.760141 -1.407339,-1.19112 C 13.150584,11.693335 12.911136,11.46662 12.668611,11.243293 11.542921,10.208635 10.465235,9.123872 9.361972,8.065855 9.16771,7.905613 8.988181,7.7135795 8.764625,7.5909235 8.72446,7.5688885 8.616274,7.51649 8.5602265,7.5524185 8.3468305,7.6892075 8.149389,7.849419 7.9439705,7.9979195 c 0.00818,0.13786 0.012585,0.3410775 0.054431,0.4720455 0.128903,0.403448 0.301423,0.603979 0.5535825,0.977544 0.484851,0.718288 0.5249595,0.756088 1.0625925,1.486155 0.7159485,0.990466 1.4664005,1.955786 2.1652375,2.958633 0.314739,0.451657 0.371306,0.545824 0.651579,0.978027 0.09716,0.196774 0.332045,0.47491 0.301484,0.722478 -0.0045,0.0364 -0.02412,0.07141 -0.04859,0.09873 -0.02335,0.02607 -0.11917,0.07348 -0.08931,0.05523 0.15274,-0.09336 0.30529,-0.187038 0.457935,-0.280558 -0.324058,0.141731 -0.753687,0.247469 -0.912676,0.584264 -0.06349,0.134496 -0.04294,0.159425 -0.04671,0.32581 0.09035,0.486088 0.260446,0.951726 0.377932,1.431176 0.05801,0.236747 0.06105,0.275314 0.101756,0.507123 0.07256,0.521269 0.187334,1.036052 0.253047,1.55824 0.161957,-0.119501 -0.05284,0.175965 -0.0081,0.152011 0.197654,-0.105843 0.405747,-0.201152 0.576629,-0.346304 0.02948,-0.02503 -0.02755,-0.07227 -0.04129,-0.108419 -0.110283,-0.290082 -0.05626,-0.141303 -0.166843,-0.465644 -0.02935,-0.09631 -0.05956,-0.192358 -0.08805,-0.288925 -0.06788,-0.230095 -0.12614,-0.462962 -0.194615,-0.692878 C 12.774198,17.686865 12.625348,17.256432 12.47646,16.826928 12.257056,16.193219 11.993934,15.580671 11.645675,15.006421 11.445632,14.676565 11.19902,14.321982 10.982261,14.002725 10.518953,13.335342 10.021058,12.690464 9.6093305,11.98857 9.5442405,11.877608 9.48461,11.763533 9.42225,11.651014 9.169236,11.17623 9.0237895,10.654975 8.988549,10.118075 8.981309,10.00779 8.984599,9.8970665 8.982649,9.786562 8.989569,9.6730085 8.984449,9.5580735 9.003414,9.4459015 9.038254,9.2398735 9.147117,8.9255145 9.2574055,8.748177 9.3932465,8.5297525 9.6469155,8.274262 9.84901,8.121987 9.997677,8.0099695 10.16172,7.9199665 10.318075,7.818956 c 0.04556,-0.01849 0.09203,-0.03489 0.13669,-0.055466 0.826843,-0.380885 0.698423,-0.351894 1.551847,-0.684365 0.460739,-0.179491 1.049722,-0.3843115 1.524696,-0.532692 0.233156,-0.072838 0.468854,-0.137276 0.703281,-0.205914 0.900167,-0.2589025 1.81422,-0.4649035 2.709881,-0.7395055 0.319694,-0.098175 0.631092,-0.220615 0.940131,-0.3477685 0.04672,-0.019225 0.09621,-0.03279 0.14011,-0.057787 0.219147,-0.12477 0.431853,-0.2605284 0.647779,-0.3907926 0.0075,-0.030779 0.03132,-0.061906 0.02251,-0.092338 C 18.644866,4.5391119 18.367817,4.4447336 18.230551,4.3886061 18.096007,4.3335916 17.82553,4.2324562 17.68981,4.1811815 17.538085,4.1222538 17.393711,4.0671064 17.243555,4.0055696 17.116416,3.9534656 16.977532,3.9012623 16.875561,3.8043875 c -0.01777,-0.016879 -0.02968,-0.039005 -0.04452,-0.058508 0.120026,-0.1838374 0.180052,-0.2687278 -0.490247,0.3167093 -0.02677,0.023381 0.07191,-9.4e-4 0.106335,0.00789 0.07132,0.018295 0.140636,0.04439 0.208537,0.072877 0.240912,0.1010741 0.322846,0.1613749 0.556743,0.299444 0.419708,0.2490345 0.779615,0.5723717 1.058012,0.9735927 0.147432,0.212476 0.202768,0.331003 0.322078,0.5547115 0.222834,0.460411 0.363314,0.954587 0.472504,1.45265 0.08479,0.538333 0.130981,1.0894241 0.104171,1.6347515 -0.0074,0.1510275 -0.02513,0.301374 -0.0377,0.4520611 -0.160317,1.1769934 -0.568281,2.2985104 -0.99863,3.3992204 -0.160926,0.396802 -0.323862,0.79285 -0.475931,1.19317 -0.06708,0.176585 -0.146616,0.357528 -0.188921,0.542332 0.214194,-0.102417 0.451016,-0.166997 0.642581,-0.30725 0.0668,-0.0489 0.06053,-0.154117 0.09211,-0.230646 0.05547,-0.134446 0.113041,-0.268016 0.169006,-0.402256 0.260504,-0.624852 0.518035,-1.250905 0.773941,-1.877651 0.252262,-0.621417 0.472832,-1.254262 0.64066,-1.9037735 0.04641,-0.1795899 0.09638,-0.358822 0.127206,-0.5417305 0.06276,-0.3724035 0.05555,-0.638947 0.06331,-1.0111585 C 19.937045,7.6098728 19.685991,6.9088523 19.36807,6.2256798 19.176738,5.8540013 18.982814,5.4846403 18.814149,5.1019753 c -0.07744,-0.220435 -0.194078,-0.4444 -0.206016,-0.6826413 -0.0015,-0.029732 0.0041,-0.059399 0.0061,-0.089098 0.01554,-0.019194 0.03108,-0.038387 0.04662,-0.057581 -0.161136,0.1021603 -0.346124,0.1739874 -0.483409,0.306481 -0.03753,0.036225 0.105639,-0.00347 0.156217,0.00929 0.07753,0.01957 0.151505,0.052261 0.223719,0.086609 0.205148,0.097575 0.370964,0.2172986 0.561641,0.3423551 0.417381,0.332027 0.833553,0.6956445 1.094633,1.169782 0.137712,0.2500945 0.173351,0.3985775 0.26068,0.6646375 0.08904,0.330307 0.127632,0.6704535 0.149721,1.010911 0.01045,0.1610625 0.02282,0.455793 0.01477,0.619828 -0.0047,0.096048 -0.01934,0.191351 -0.02901,0.287026 -0.0707,0.386379 -0.170006,0.7696615 -0.337571,1.126335 -0.107517,0.2288574 -0.228331,0.4305474 -0.353473,0.6509494 -0.310477,0.528187 -0.654016,1.036123 -0.964747,1.564161 -0.147327,0.250358 -0.18468,0.327309 -0.313816,0.57206 -0.01021,0.02042 -0.138916,0.284823 -0.17246,0.331407 -0.01051,0.01459 -0.05995,0.03955 -0.0442,0.03089 0.207558,-0.114095 0.429771,-0.206055 0.619869,-0.347337 0.03857,-0.02866 0.02131,-0.0938 0.03548,-0.139717 0.02461,-0.07974 0.05384,-0.157971 0.08076,-0.236957 0.226532,-0.66948 0.49661,-1.325313 0.671764,-2.011433 0.144896,-0.5675944 0.179937,-0.8572369 0.276667,-1.4391014 0.102887,-0.6169295 0.155344,-1.2449115 0.136044,-1.870733 -0.01272,-0.412627 -0.06861,-0.821572 -0.137793,-1.227708 -0.04459,-0.2016255 -0.07749,-0.407608 -0.145713,-0.6033295 -0.02182,-0.062595 -0.0428,-0.117589 -0.08681,-0.1671845 -0.01193,-0.013443 -0.02815,-0.022349 -0.04224,-0.033524 -0.270687,-0.080872 -0.03177,-0.021792 -0.643275,0.3624054 0,0 0.616721,-0.2698355 0.616721,-0.2698355 v 0 c -0.562888,0.3129925 -0.643049,0.4974255 -0.537055,0.274854 0.07135,0.01769 0.0954,0.083117 0.122816,0.1474215 0.079,0.185286 0.124514,0.3831885 0.176022,0.5770315 0.0229,0.1081065 0.04963,0.21547 0.06868,0.324319 0.157231,0.8982725 0.144771,1.816984 0.0016,2.7162995 -0.110701,0.6268485 -0.131864,0.833417 -0.298678,1.442241 -0.19198,0.700677 -0.477016,1.370527 -0.747361,2.043175 -0.03299,0.08369 -0.06843,0.166443 -0.09897,0.251053 -0.01828,0.05065 -0.100988,0.159532 -0.04738,0.154439 0.632315,-0.06007 0.576468,-0.16118 0.762303,-0.564452 0.365905,-0.738523 0.819184,-1.426153 1.257009,-2.123237 0.139056,-0.237913 0.253085,-0.4189185 0.368367,-0.666217 0.168743,-0.361982 0.267591,-0.752603 0.333288,-1.1450865 0.0081,-0.09717 0.02098,-0.194059 0.02417,-0.2915105 0.0052,-0.1573555 -0.01124,-0.4674355 -0.02301,-0.621176 C 21.140455,7.235775 21.098326,6.8916305 21.007948,6.5575215 20.922287,6.314242 20.861487,6.1103365 20.734109,5.8823655 20.466826,5.404005 20.033881,5.047654 19.629006,4.6919429 19.214164,4.3925291 18.364539,3.6851358 18.023786,4.6300995 c 0.01026,0.276472 0.12393,0.535784 0.229679,0.787636 0.170035,0.382801 0.372055,0.748018 0.572451,1.115502 0.09826,0.1982275 0.16488,0.324769 0.250693,0.5321745 0.207195,0.500778 0.351263,1.0255355 0.381525,1.5688 -0.0025,0.410192 0.01108,0.578463 -0.05482,0.993615 -0.02851,0.179591 -0.07208,0.3565685 -0.115397,0.533174 -0.158044,0.644358 -0.373029,1.272414 -0.621184,1.88736 -0.265699,0.638409 -0.5325,1.275914 -0.829377,1.900682 -0.06657,0.140085 -0.133221,0.280274 -0.206853,0.416776 -0.04252,0.07882 -0.230737,0.231439 -0.141235,0.228529 0.208268,-0.0068 0.384074,-0.161779 0.576111,-0.242668 7.5e-4,-0.02181 -0.0028,-0.0442 0.0022,-0.06543 0.01231,-0.05172 0.136673,-0.427027 0.141191,-0.440239 0.13493,-0.394558 0.286879,-0.782914 0.433932,-1.173025 0.216282,-0.582745 0.429956,-1.167095 0.614397,-1.760935 0.100259,-0.322801 0.248577,-0.845093 0.319589,-1.1839975 0.03319,-0.158387 0.05284,-0.319311 0.07926,-0.478966 0.01397,-0.1528695 0.03263,-0.305382 0.0419,-0.458608 C 19.731421,8.235564 19.707136,7.672749 19.623363,7.123508 19.507357,6.621699 19.360215,6.12527 19.128089,5.663429 18.961657,5.368448 18.79269,5.071669 18.569617,4.8142285 18.328562,4.536035 18.033897,4.3083649 17.724077,4.1127372 17.486687,3.9588567 17.248834,3.8047976 16.987163,3.6938682 16.70671,3.574977 16.152094,3.7469236 16.260747,4.0871102 c 0.01961,0.023131 0.03625,0.04915 0.05882,0.069391 0.222374,0.1993611 0.591419,0.2470318 0.854881,0.3713846 0.213832,0.080778 0.32188,0.1184337 0.530574,0.209685 0.05951,0.026023 0.372576,0.1490246 0.386991,0.25596 0.0028,0.021046 -0.02083,0.037014 -0.03124,0.05552 0.157865,-0.085272 0.319077,-0.1646199 0.473595,-0.2558172 0.04567,-0.026959 -0.09754,0.041698 -0.146271,0.062629 -0.315593,0.1355426 -0.632846,0.2687591 -0.960956,0.3716266 -0.916956,0.29174 -1.852068,0.519753 -2.775067,0.791069 -0.237321,0.0701 -0.475972,0.135842 -0.711962,0.2102995 -0.787585,0.248493 -1.566858,0.5327885 -2.325323,0.859766 -0.249436,0.107533 -0.499806,0.214008 -0.741447,0.3380695 -0.365572,0.187689 -0.71926,0.397675 -1.07889,0.5965125 C 9.631667,8.1302005 9.4604735,8.2253875 9.306091,8.3441885 9.096687,8.5053305 8.847385,8.7690205 8.710162,8.9985805 8.6011275,9.180984 8.4928375,9.510384 8.4584855,9.719466 c -0.018725,0.1139535 -0.013545,0.2305655 -0.02032,0.345849 0.00235,0.112496 -4.975e-4,0.225218 0.00699,0.337489 0.03641,0.545549 0.182608,1.073474 0.456614,1.547958 0.064343,0.112521 0.125662,0.226825 0.193027,0.337564 0.42382,0.696698 0.9387155,1.330533 1.4068105,1.996756 0.268481,0.391147 0.415926,0.590083 0.654745,1.002546 0.333863,0.576616 0.587271,1.194449 0.80924,1.821331 0.138416,0.403953 0.167889,0.476186 0.288981,0.884143 0.109997,0.37058 0.201176,0.745601 0.301444,1.118741 0.02637,0.09813 0.05548,0.195507 0.08322,0.293261 0.05649,0.18828 0.09036,0.294885 0.139297,0.479705 0.01161,0.04384 -0.01199,0.143224 0.032,0.132228 0.643785,-0.160893 0.642631,-0.115434 0.586764,-0.44657 -0.09888,-0.515899 -0.216864,-1.028821 -0.26756,-1.55279 -0.01641,-0.07978 -0.02991,-0.160219 -0.04923,-0.239348 -0.137356,-0.562585 -0.378087,-1.103749 -0.414605,-1.687881 0.0215,-0.150495 0.0071,-0.185896 0.07864,-0.302463 0.01844,-0.03007 0.09864,-0.09624 0.06608,-0.08266 -0.167826,0.07006 -0.322155,0.168889 -0.481712,0.256155 -0.0318,0.01739 0.06479,-0.03263 0.09829,-0.04645 0.03626,-0.01497 0.07382,-0.02655 0.110732,-0.03981 0.222585,-0.12551 0.451052,-0.241117 0.667755,-0.37653 0.03214,-0.02008 0.05744,-0.05239 0.07354,-0.08669 0.123401,-0.262856 -0.242109,-0.642808 -0.353287,-0.83261 C 11.966949,13.277409 10.974387,12.000479 10.025234,10.691221 9.7031635,10.227025 9.3042715,9.6720705 9.0129925,9.1805465 8.7905765,8.8052255 8.537941,8.3835035 8.525355,7.9297165 8.523505,7.8621525 8.53671,7.7950145 8.542385,7.727663 8.3733025,7.8047035 8.20575,7.8851935 8.035138,7.958784 c -0.02594,0.01119 0.04452,-0.04092 0.072638,-0.04366 0.039505,-0.00385 0.079655,0.01016 0.1163755,0.02523 0.2291045,0.094035 0.4398925,0.2968865 0.638312,0.435215 1.1749045,0.993387 2.2832565,2.062597 3.4026165,3.117275 0.06146,0.0567 1.384558,1.277701 1.449742,1.336523 0.209354,0.188921 0.42327,0.372724 0.634779,0.559228 0.287301,0.253337 0.56989,0.512067 0.860564,0.761525 0.05399,0.04634 0.111298,0.08868 0.166947,0.133015 0.214088,-0.113252 0.4513,-0.190784 0.642263,-0.339755 0.03534,-0.02757 -0.02533,-0.08628 -0.04375,-0.127145 -0.03435,-0.07622 -0.07507,-0.149434 -0.114213,-0.223313 -0.155954,-0.29434 -0.31713,-0.586189 -0.483286,-0.874873 C 14.83276,11.855311 14.225212,11.042297 13.520829,10.301122 12.982021,9.754606 13.000942,9.770464 12.429892,9.205983 11.953723,8.735292 11.622195,8.4195125 11.155257,7.9395415 10.955671,7.734385 10.762238,7.523322 10.563963,7.316899 10.408727,7.1552845 10.251152,6.9959345 10.094747,6.8354525 9.5874085,6.3140455 9.0673645,5.799076 8.64804,5.2013985 c 0,0 -0.572724,0.3423065 -0.572724,0.3423065 z" />
  <path
     style="fill:#ddc3f7;fill-opacity:1;stroke-width:1"
     id="path76"
     d="m 18.136334,7.521824 c -0.12252,0.4030835 -0.286308,0.7900555 -0.453458,1.1761605 -0.03735,0.085753 -0.07476,0.171478 -0.112039,0.257261 -0.0886,0.203886 -0.132085,0.2951925 -0.206357,0.507985 -0.112985,0.3237075 -0.197042,0.6534535 -0.276549,0.9865425 -0.156734,0.763537 -0.407601,1.502096 -0.626912,2.24873 -0.237048,0.804294 -0.480573,1.606418 -0.68995,2.41847 -0.110426,0.447234 -0.220132,0.8949 -0.341941,1.339222 -0.01975,0.07206 -0.129046,0.457182 -0.166278,0.555232 -0.01491,0.03927 -0.03843,0.0747 -0.05764,0.112047 -0.605698,-0.751398 0.514632,-0.165323 0.608633,-0.386506 0.04402,-0.103588 0.06127,-0.216648 0.09526,-0.323947 0.04775,-0.150768 0.09929,-0.300313 0.149932,-0.450137 0.07298,-0.215916 0.147278,-0.431384 0.220917,-0.647075 0.09129,-0.270967 0.18258,-0.541934 0.273871,-0.8129 0.328417,-0.959359 0.598773,-1.936972 0.826489,-2.924801 0.128346,-0.556765 0.262043,-1.232954 0.376622,-1.797736 0,0 -0.452944,0.220141 -0.452944,0.220141 v 0 c -0.123366,0.692304 -0.184524,1.077855 -0.343021,1.778708 -0.225116,0.995433 -0.508935,1.976496 -0.859625,2.935179 -0.242267,0.654125 -0.491472,1.305131 -0.742117,1.956041 -0.04498,0.116824 -0.106815,0.228003 -0.13831,0.349162 -0.01545,0.05942 -0.0592,0.201574 -3.28e-4,0.184171 0.217807,-0.06439 0.387382,-0.237229 0.581073,-0.355843 0.189819,-0.653394 0.307422,-1.326309 0.493501,-1.980859 0.227792,-0.81179 0.466475,-1.620171 0.71122,-2.42701 0.221451,-0.746812 0.456104,-1.490248 0.626074,-2.251157 0.07465,-0.286327 0.101285,-0.4064435 0.190409,-0.68219 0.118104,-0.3654105 0.271822,-0.717205 0.425919,-1.068481 0.172852,-0.3976915 0.343991,-0.796087 0.491349,-1.204077 0,0 -0.603799,0.287667 -0.6038,0.287667 z" />
  <path
     style="fill:#ddc3f7;fill-opacity:1;stroke-width:1"
     id="path78"
     d="m 17.999971,8.249097 c -0.172303,0.706138 -0.530074,1.34956 -0.872379,1.984448 -0.426613,0.751648 -0.926991,1.458751 -1.459274,2.138593 0,0 0.557117,-0.239709 0.557117,-0.239709 v 0 c 0.503852,-0.686238 0.985095,-1.390651 1.412555,-2.127397 0.368501,-0.6571785 0.736383,-1.3224885 0.96578,-2.0436025 0,0 -0.603799,0.2876675 -0.603799,0.2876675 z" />
  <path
     style="fill:#ddc3f7;fill-opacity:1;stroke-width:1"
     id="path80"
     d="M 17.881858,6.9289075 C 17.635993,6.762601 17.388256,6.5967535 17.126712,6.455626 17.011229,6.3933115 16.48726,6.1365235 16.374866,6.0811425 16.252193,6.022913 16.129821,5.964048 16.006849,5.906454 15.817874,5.8179475 15.645924,5.730532 15.446721,5.6710705 c -0.04362,-0.01302 -0.09405,-0.04497 -0.134429,-0.02396 -0.686907,0.3574485 -0.711035,0.2284125 -0.475295,0.538037 0.196849,0.207864 0.41868,0.3895905 0.619146,0.59377 0.09307,0.094796 0.183312,0.1923375 0.276067,0.2874425 0.14019,0.148248 0.279111,0.29759 0.416144,0.448754 0,0 0.548345,-0.333239 0.548345,-0.333239 v 0 C 16.555698,7.0336 16.416737,6.883486 16.277315,6.7337255 16.23251,6.6866155 16.048925,6.49288 16.00024,6.444382 15.800948,6.2458565 15.578438,6.070655 15.3974,5.854038 15.228368,5.5984565 15.321513,5.6686185 14.781655,6.026526 c -0.04061,0.026925 0.09813,-0.01089 0.146153,-0.00265 0.339947,0.058416 0.637526,0.256667 0.952211,0.383007 0.501949,0.2518235 1.012937,0.5047725 1.43473,0.882555 0,0 0.56711,-0.360541 0.56711,-0.360541 z" />
  <path
     style="fill:#ddc3f7;fill-opacity:1;stroke-width:1"
     id="path82"
     d="m 11.769671,7.752772 c 0.04321,0.014455 0.0856,0.031645 0.129631,0.04337 0.568014,0.151275 1.20358,0.1509075 1.787493,0.1529085 0.302186,-0.014355 0.607094,-0.01327 0.907507,-0.054686 0.01619,-0.00225 0.209695,-0.03274 0.252791,-0.061459 0.190287,-0.1268075 0.371781,-0.266338 0.557672,-0.399507 -0.03136,-0.02296 -0.05841,-0.053451 -0.09409,-0.068886 -0.06413,-0.02775 -0.380937,-0.099185 -0.428885,-0.109921 C 14.611,7.1939545 14.339653,7.135918 14.069009,7.074539 c -0.189537,-0.03391 -0.38283,-0.103984 -0.578902,-0.08488 -0.145398,0.014165 -0.274152,0.083313 -0.402369,0.1466565 0,0 -0.510062,0.40875 -0.510062,0.40875 v 0 c 0.122101,-0.064531 0.250594,-0.1469175 0.388499,-0.1730375 0.196845,-0.037285 0.397494,0.026025 0.58901,0.059011 0.419687,0.090381 0.841572,0.17772 1.250451,0.3096825 0.186623,-0.106242 0.373653,-0.211771 0.559869,-0.3187255 0.02994,-0.017195 -0.05853,0.037765 -0.09103,0.04944 -0.05639,0.02027 -0.114986,0.03452 -0.173845,0.04576 -0.306758,0.058564 -0.621984,0.061217 -0.932319,0.081883 -0.412929,0.0028 -0.814492,-0.0031 -1.224686,-0.059569 -0.15434,-0.02124 -0.348568,-0.058523 -0.501226,-0.108584 -0.0394,-0.01292 -0.07614,-0.032865 -0.114208,-0.049295 0,0 -0.558527,0.3711375 -0.558527,0.3711375 z" />
  <path
     style="fill:#ddc3f7;fill-opacity:1;stroke-width:1"
     id="path84"
     d="m 15.513139,3.8016283 c -0.267545,0.00178 -0.528791,0.067849 -0.763425,0.1996285 -0.755671,0.4244146 -0.648935,0.3600936 -1.131481,0.7325916 -0.327892,0.2817001 -0.590398,0.5975111 -0.730406,1.0117321 -0.06402,0.1893925 -0.08769,0.361375 -0.122819,0.5567315 -0.0261,0.318701 -0.02309,0.1668595 -0.01426,0.4553915 0,0 0.568987,-0.293157 0.568987,-0.293157 v 0 c -0.01661,-0.274043 -0.01647,-0.128871 0.0062,-0.4354725 0.03992,-0.217421 0.05217,-0.332762 0.127828,-0.543502 0.141524,-0.394189 0.406165,-0.7095054 0.724778,-0.9750555 0.09989,-0.075122 0.228614,-0.1225466 0.299675,-0.2253674 0.04483,-0.064865 -0.286215,0.1324143 -0.213828,0.1011519 0.08824,-0.038111 0.171468,-0.087833 0.261424,-0.1217077 0.139976,-0.052711 0.292322,-0.077308 0.441226,-0.066222 0,0 0.546071,-0.3967434 0.546071,-0.3967434 z" />
  <path
     style="fill:#ddc3f7;fill-opacity:1;stroke-width:1"
     id="path86"
     d="m 16.834226,9.7453355 c -0.317522,0.6947175 -0.692279,1.3609685 -0.997825,2.0617205 -0.349721,0.802061 -0.422961,1.054362 -0.721684,1.89173 -0.291044,0.878365 -0.534023,1.771129 -0.774537,2.66422 0,0 0.468877,-0.224502 0.468877,-0.224502 v 0 c 0.207872,-0.887027 0.422837,-1.773154 0.723544,-2.63462 0.122114,-0.330581 0.235718,-0.664431 0.366343,-0.991742 0.122717,-0.307496 0.253934,-0.611736 0.393412,-0.912002 0.339479,-0.730827 0.753816,-1.421537 1.139186,-2.12799 0,0 -0.597316,0.2731855 -0.597316,0.2731855 z" />
  <path
     style="fill:#ddc3f7;fill-opacity:1;stroke-width:1"
     id="path88"
     d="m 14.465872,12.419712 c -0.546862,0.470113 -0.88219,1.114337 -1.234332,1.730468 -0.10786,0.18872 -0.216754,0.376847 -0.325131,0.56527 -0.23189,0.422383 -0.48755,0.831903 -0.701094,1.264283 -0.09688,0.196169 -0.08744,0.129184 -0.08458,0.268421 0,0 0.593055,-0.312421 0.593055,-0.312421 v 0 c -0.03475,-0.0854 -0.02516,-0.0415 0.04436,-0.206297 0.180884,-0.428806 0.431513,-0.824328 0.646254,-1.235793 0.379894,-0.659917 0.738926,-1.353315 1.249246,-1.925402 0.156937,-0.175932 0.251641,-0.247304 0.422889,-0.392042 0,0 -0.610666,0.243513 -0.610667,0.243513 z" />
  <path
     style="fill:#ddc3f7;fill-opacity:1;stroke-width:1"
     id="path90"
     d="m 14.286081,13.86726 c -0.280185,0.404277 -0.6995,0.686764 -1.089097,0.976668 -0.06636,0.0723 -0.381672,0.228566 -0.378603,0.35266 8.5e-4,0.03356 0.0249,0.08032 0.05843,0.08203 0.09142,0.0046 0.185615,-0.02298 0.266719,-0.06543 0.333376,-0.174503 0.645302,-0.387232 0.967952,-0.580847 0.970197,-0.624473 1.778803,-1.450754 2.636122,-2.213222 0.128111,-0.113937 0.260504,-0.222966 0.390756,-0.334449 0.09889,-0.06938 0.403135,-0.265198 0.296659,-0.208145 -0.131184,0.07029 -0.251833,0.159222 -0.371214,0.248094 -0.01302,0.0097 -0.0115,0.03078 -0.02104,0.04392 -0.05083,0.06996 -0.102515,0.139572 -0.159524,0.2046 -0.10766,0.122804 -0.215544,0.246031 -0.334051,0.358404 -0.165794,0.157212 -0.345128,0.299499 -0.517691,0.449249 -0.193381,0.154095 -0.386761,0.30819 -0.580141,0.462286 0,0 0.487661,-0.195572 0.487661,-0.195572 v 0 c 0.195775,-0.155764 0.391551,-0.311528 0.587326,-0.467292 0.339733,-0.288652 0.642674,-0.515653 0.926417,-0.854524 0.06887,-0.08225 0.144299,-0.167361 0.174872,-0.270194 0.01333,-0.04482 -0.01185,-0.142854 -0.05635,-0.12847 -0.252389,0.08159 -0.474469,0.238282 -0.702496,0.373785 -0.0952,0.05657 -0.176398,0.133932 -0.264597,0.200899 -0.982034,0.875351 -1.903677,1.831264 -3.023755,2.53661 0.01994,-0.0045 0.07677,-0.02489 0.05983,-0.01345 -0.06044,0.04083 -0.127027,0.07198 -0.192885,0.103325 -0.0075,0.0036 -0.02745,0.0082 -0.0249,3.42e-4 0.04431,-0.137559 0.268867,-0.214002 0.354643,-0.315451 0.399729,-0.304681 0.818005,-0.601935 1.122526,-1.007965 0,0 -0.613571,0.262141 -0.613571,0.262141 z" />
  <path
     style="fill:#ddc3f7;fill-opacity:1;stroke-width:1"
     id="path92"
     d="m 15.988737,6.3559325 c -0.03265,0.01063 -0.06599,0.01931 -0.09793,0.0319 -0.0789,0.03109 -0.304215,0.131969 -0.371736,0.170705 -0.484537,0.2779755 -0.793645,0.438102 -1.191599,0.766901 -0.156736,0.1294995 -0.304033,0.2700165 -0.45605,0.4050245 -0.81512,0.7886075 -1.523668,1.6863915 -2.128138,2.645531 -0.357358,0.567036 -0.606814,1.049657 -0.9249,1.636621 -0.3152,0.587536 -0.599361,1.190701 -0.8858645,1.792465 0,0 0.5215015,-0.238238 0.5215015,-0.238238 v 0 c 0.256528,-0.591364 0.512022,-1.183701 0.811755,-1.755011 0.358094,-0.66939 0.509754,-0.983067 0.923796,-1.630593 0.62013,-0.9698325 1.346693,-1.875732 2.192503,-2.6580585 0.16204,-0.137334 0.319177,-0.280672 0.486119,-0.4120025 0.128817,-0.1013375 0.285388,-0.1686215 0.400392,-0.2854 0.06536,-0.066366 -0.169365,0.079075 -0.247356,0.1300015 -0.05881,0.038405 0.12602,-0.062109 0.189486,-0.092214 0.0519,-0.02462 0.103025,-0.051233 0.156606,-0.071954 0.02942,-0.01138 0.06102,-0.016005 0.09153,-0.02401 0,0 0.529887,-0.411667 0.529887,-0.411667 z" />
</svg>
